# Blender 5.0.1
# www.blender.org
mtllib cola.mtl
o Cola_(1)
v -0.100000 -0.590835 -2.898557
v -0.100000 0.437626 -1.672886
v -0.100000 -0.437626 -3.027115
v -0.100000 0.590835 -1.801443
v 0.100000 -0.590835 -2.898557
v 0.100000 0.437626 -1.672886
v 0.100000 -0.437626 -3.027115
v 0.100000 0.590835 -1.801443
vn -1.0000 -0.0000 -0.0000
vn -0.0000 0.7660 -0.6428
vn 1.0000 -0.0000 -0.0000
vn -0.0000 -0.7660 0.6428
vn -0.0000 -0.6428 -0.7660
vn -0.0000 0.6428 0.7660
vt 0.666667 0.888889
vt 0.555556 0.888889
vt 0.555556 0.777778
vt 0.666667 0.777778
vt 0.777778 0.888889
vt 0.777778 0.777778
vt 0.888889 0.000000
vt 0.888889 0.111111
vt 0.777778 0.111111
vt 0.777778 0.000000
vt 0.888889 0.222222
vt 0.777778 0.222222
vt 0.888889 0.333333
vt 0.777778 0.333333
vt 0.888889 0.444444
vt 0.777778 0.444444
s 1
usemtl Material.001
f 1/1/1 2/2/1 4/3/1 3/4/1
f 3/5/2 4/1/2 8/4/2 7/6/2
f 7/7/3 8/8/3 6/9/3 5/10/3
f 5/8/4 6/11/4 2/12/4 1/9/4
f 3/12/5 7/11/5 5/13/5 1/14/5
f 8/14/6 4/13/6 2/15/6 6/16/6
o Cola_(2)
v -0.100000 -0.303553 -2.875025
v -0.100000 0.544975 -3.723553
v -0.100000 -0.444975 -3.016447
v -0.100000 0.403553 -3.864975
v 0.100000 -0.303553 -2.875025
v 0.100000 0.544975 -3.723553
v 0.100000 -0.444975 -3.016447
v 0.100000 0.403553 -3.864975
vn -1.0000 -0.0000 -0.0000
vn -0.0000 -0.7071 -0.7071
vn 1.0000 -0.0000 -0.0000
vn -0.0000 0.7071 0.7071
vn -0.0000 -0.7071 0.7071
vn -0.0000 0.7071 -0.7071
vt 0.888889 0.444444
vt 0.888889 0.555556
vt 0.777778 0.555556
vt 0.777778 0.444444
vt 0.888889 0.666667
vt 0.777778 0.666667
vt 0.888889 0.777778
vt 0.777778 0.777778
vt 0.888889 0.888889
vt 0.777778 0.888889
vt 0.111111 0.888889
vt 0.111111 1.000000
vt 0.000000 1.000000
vt -0.000000 0.888889
vt 0.222222 0.888889
vt 0.222222 1.000000
s 1
usemtl Material.001
f 9/17/7 10/18/7 12/19/7 11/20/7
f 11/18/8 12/21/8 16/22/8 15/19/8
f 15/21/9 16/23/9 14/24/9 13/22/9
f 13/23/10 14/25/10 10/26/10 9/24/10
f 11/27/11 15/28/11 13/29/11 9/30/11
f 16/31/12 12/32/12 10/28/12 14/27/12
