# Blender 5.0.1
# www.blender.org
mtllib pataIzquierdaAdelante.mtl
o Pata_Izq_(Adelante)
v -0.428772 -1.700000 1.600000
v -0.428772 0.700000 1.600000
v -0.428772 -1.700000 1.200000
v -0.428772 0.700000 1.200000
v -0.028772 -1.700000 1.600000
v -0.028772 0.700000 1.600000
v -0.028772 -1.700000 1.200000
v -0.028772 0.700000 1.200000
vn -1.0000 -0.0000 -0.0000
vn -0.0000 -0.0000 -1.0000
vn 1.0000 -0.0000 -0.0000
vn -0.0000 -0.0000 1.0000
vn -0.0000 -1.0000 -0.0000
vn -0.0000 1.0000 -0.0000
vt 0.666667 -0.000000
vt 0.666667 0.111111
vt 0.555556 0.111111
vt 0.555556 0.000000
vt 0.666667 0.222222
vt 0.555556 0.222222
vt 0.666667 0.333333
vt 0.555556 0.333333
vt 0.666667 0.444444
vt 0.555556 0.444444
vt 0.555556 0.444445
vt 0.666667 0.444445
vt 0.666667 0.555556
vt 0.555556 0.555556
vt 0.666667 0.666667
vt 0.555556 0.666667
s 1
usemtl Material.001
f 1/1/1 2/2/1 4/3/1 3/4/1
f 3/2/2 4/5/2 8/6/2 7/3/2
f 7/5/3 8/7/3 6/8/3 5/6/3
f 5/7/4 6/9/4 2/10/4 1/8/4
f 3/11/5 7/12/5 5/13/5 1/14/5
f 8/14/6 4/13/6 2/15/6 6/16/6
