# Blender 5.0.1
# www.blender.org
mtllib villager.mtl
o Villager
v -0.305026 1.831643 0.214756
v 0.305026 1.831643 0.214756
v -0.305026 1.831643 -0.395297
v 0.305026 1.831643 -0.395297
v -0.305026 2.594209 0.214756
v 0.305026 2.594209 0.214756
v -0.305026 2.594209 -0.395297
v 0.305026 2.594209 -0.395297
v -0.319782 0.269623 -0.330107
v 0.319782 0.269623 -0.330107
v -0.319782 1.868532 -0.330107
v 0.319782 1.868532 -0.330107
v -0.319782 0.269623 0.149566
v 0.319782 0.269623 0.149566
v -0.319782 1.868532 0.149566
v 0.319782 1.868532 0.149566
v -0.610052 1.175967 0.159930
v -0.305026 1.175967 0.159930
v -0.610052 1.607339 -0.271442
v -0.305026 1.607339 -0.271442
v -0.610052 1.391653 0.375616
v -0.305026 1.391653 0.375616
v -0.610052 1.823025 -0.055756
v -0.305026 1.823025 -0.055756
v -0.305026 1.175967 0.159930
v 0.305026 1.175967 0.159930
v -0.305026 1.391653 -0.055756
v 0.305026 1.391653 -0.055756
v -0.305026 1.391653 0.375616
v 0.305026 1.391653 0.375616
v -0.305026 1.607339 0.159930
v 0.305026 1.607339 0.159930
v 0.305026 1.175967 0.159930
v 0.610052 1.175967 0.159930
v 0.305026 1.607339 -0.271442
v 0.610052 1.607339 -0.271442
v 0.305026 1.391653 0.375616
v 0.610052 1.391653 0.375616
v 0.305026 1.823025 -0.055756
v 0.610052 1.823025 -0.055756
v 0.000000 0.001486 0.062243
v 0.305026 0.001486 0.062243
v 0.000000 0.001486 -0.242784
v 0.305026 0.001486 -0.242784
v 0.000000 0.916565 0.062243
v 0.305026 0.916565 0.062243
v 0.000000 0.916565 -0.242784
v 0.305026 0.916565 -0.242784
v -0.305026 0.001486 0.062243
v 0.000000 0.001486 0.062243
v -0.305026 0.001486 -0.242784
v 0.000000 0.001486 -0.242784
v -0.305026 0.916565 0.062243
v 0.000000 0.916565 0.062243
v -0.305026 0.916565 -0.242784
v 0.000000 0.916565 -0.242784
v -0.305026 0.916565 0.138499
v 0.305026 0.916565 0.138499
v -0.305026 0.916565 -0.319040
v 0.305026 0.916565 -0.319040
v -0.305026 1.831643 0.138499
v 0.305026 1.831643 0.138499
v -0.305026 1.831643 -0.319040
v 0.305026 1.831643 -0.319040
v -0.076257 1.755387 0.367269
v 0.076257 1.755387 0.367269
v -0.076257 1.755387 0.214756
v 0.076257 1.755387 0.214756
v -0.076257 2.060413 0.367269
v 0.076257 2.060413 0.367269
v -0.076257 2.060413 0.214756
v 0.076257 2.060413 0.214756
vn -0.0000 -1.0000 -0.0000
vn -0.0000 1.0000 -0.0000
vn -0.0000 -0.0000 1.0000
vn 1.0000 -0.0000 -0.0000
vn -0.0000 -0.0000 -1.0000
vn -1.0000 -0.0000 -0.0000
vn -0.0000 -0.7071 -0.7071
vn -0.0000 0.7071 0.7071
vn -0.0000 -0.7071 0.7071
vn -0.0000 0.7071 -0.7071
vt 0.250000 0.875000
vt 0.250000 1.000000
vt 0.375000 1.000000
vt 0.375000 0.875000
vt 0.125000 0.875000
vt 0.125000 1.000000
vt 0.125000 0.719021
vt 0.250000 0.719021
vt 0.375000 0.719021
vt 0.500000 0.719021
vt 0.500000 0.875000
vt 0.000000 0.719021
vt 0.000000 0.875000
vt 0.437500 0.000000
vt 0.437500 0.312500
vt 0.312500 0.312500
vt 0.312500 0.000000
vt 0.093911 0.000000
vt 0.218488 -0.000000
vt 0.218488 0.312500
vt 0.093911 0.312500
vt 0.218488 0.406268
vt 0.312500 0.406268
vt 0.093911 0.406268
vt 0.000000 0.312500
vt 0.000000 0.000000
vt 0.093911 0.000000
vt 0.093911 0.312500
vt 0.937500 0.468705
vt 0.937500 0.593753
vt 0.875000 0.593753
vt 0.875000 0.468705
vt 0.750000 0.468705
vt 0.812500 0.468705
vt 0.812500 0.593753
vt 0.750000 0.593753
vt 0.812500 0.650000
vt 0.875000 0.650000
vt 0.750000 0.650000
vt 0.687500 0.593753
vt 0.687500 0.468705
vt 1.000000 0.281379
vt 1.000000 0.343705
vt 0.875000 0.343705
vt 0.875000 0.281379
vt 0.687500 0.281379
vt 0.812500 0.281379
vt 0.812500 0.343705
vt 0.687500 0.343705
vt 0.812500 0.400000
vt 0.937500 0.400000
vt 0.937500 0.343705
vt 0.687500 0.400000
vt 0.625000 0.343705
vt 0.625000 0.281379
vt 0.125000 0.593686
vt 0.125000 0.656009
vt 0.187500 0.656009
vt 0.187500 0.593686
vt 0.062500 0.593686
vt 0.062500 0.656009
vt 0.062500 0.406365
vt 0.125000 0.406365
vt 0.187500 0.406365
vt 0.250000 0.406365
vt 0.250000 0.593686
vt 0.000000 0.406365
vt 0.000000 0.593686
vt 0.468687 0.593826
vt 0.468687 0.687500
vt 0.625000 0.687500
vt 0.624900 0.593826
vt 0.343778 0.593826
vt 0.343778 0.687500
vt 0.343778 0.406230
vt 0.468687 0.406230
vt 0.562500 0.406230
vt 0.562500 0.593826
vt 0.687500 0.406230
vt 0.687500 0.593826
vt 0.250000 0.406230
vt 0.250000 0.593826
vt 0.437500 0.968736
vt 0.437500 1.000000
vt 0.468780 1.000000
vt 0.468780 0.968736
vt 0.406256 0.968736
vt 0.406256 1.000000
vt 0.406256 0.906437
vt 0.437500 0.906437
vt 0.468780 0.906437
vt 0.500000 0.906437
vt 0.500000 0.968736
vt 0.375008 0.906437
vt 0.375008 0.968736
s 1
usemtl 02_-_Default
f 1/1/1 3/2/1 4/3/1 2/4/1
f 5/5/2 6/1/2 8/2/2 7/6/2
f 1/7/3 2/8/3 6/1/3 5/5/3
f 2/8/4 4/9/4 8/4/4 6/1/4
f 4/9/5 3/10/5 7/11/5 8/4/5
f 3/12/6 1/7/6 5/5/6 7/13/6
f 9/14/5 11/15/5 12/16/5 10/17/5
f 13/18/3 14/19/3 16/20/3 15/21/3
f 9/22/1 10/23/1 14/16/1 13/20/1
f 10/17/4 12/16/4 16/20/4 14/19/4
f 12/22/2 11/24/2 15/21/2 16/20/2
f 11/25/6 9/26/6 13/27/6 15/28/6
f 17/29/7 19/30/7 20/31/7 18/32/7
f 21/33/8 22/34/8 24/35/8 23/36/8
f 17/37/9 18/38/9 22/31/9 21/35/9
f 18/32/4 20/31/4 24/35/4 22/34/4
f 20/37/10 19/39/10 23/36/10 24/35/10
f 19/40/6 17/41/6 21/33/6 23/36/6
f 25/42/7 27/43/7 28/44/7 26/45/7
f 29/46/8 30/47/8 32/48/8 31/49/8
f 25/50/9 26/51/9 30/52/9 29/48/9
f 26/45/4 28/44/4 32/48/4 30/47/4
f 28/50/10 27/53/10 31/49/10 32/48/10
f 27/54/6 25/55/6 29/46/6 31/49/6
f 33/29/7 35/30/7 36/31/7 34/32/7
f 37/33/8 38/34/8 40/35/8 39/36/8
f 33/37/9 34/38/9 38/31/9 37/35/9
f 34/32/4 36/31/4 40/35/4 38/34/4
f 36/37/10 35/39/10 39/36/10 40/35/10
f 35/40/6 33/41/6 37/33/6 39/36/6
f 41/56/1 43/57/1 44/58/1 42/59/1
f 45/60/2 46/56/2 48/57/2 47/61/2
f 41/62/3 42/63/3 46/56/3 45/60/3
f 42/63/4 44/64/4 48/59/4 46/56/4
f 44/64/5 43/65/5 47/66/5 48/59/5
f 43/67/6 41/62/6 45/60/6 47/68/6
f 49/56/1 51/57/1 52/58/1 50/59/1
f 53/60/2 54/56/2 56/57/2 55/61/2
f 49/62/3 50/63/3 54/56/3 53/60/3
f 50/63/4 52/64/4 56/59/4 54/56/4
f 52/64/5 51/65/5 55/66/5 56/59/5
f 51/67/6 49/62/6 53/60/6 55/68/6
f 57/69/1 59/70/1 60/71/1 58/72/1
f 61/73/2 62/69/2 64/70/2 63/74/2
f 57/75/3 58/76/3 62/69/3 61/73/3
f 58/76/4 60/77/4 64/78/4 62/69/4
f 60/77/5 59/79/5 63/80/5 64/78/5
f 59/81/6 57/75/6 61/73/6 63/82/6
f 65/83/1 67/84/1 68/85/1 66/86/1
f 69/87/2 70/83/2 72/84/2 71/88/2
f 65/89/3 66/90/3 70/83/3 69/87/3
f 66/90/4 68/91/4 72/86/4 70/83/4
f 68/91/5 67/92/5 71/93/5 72/86/5
f 67/94/6 65/89/6 69/87/6 71/95/6
