# Blender 5.0.1
# www.blender.org
mtllib cabeza.mtl
o cabeza
v -0.895720 -0.586969 0.677691
v -0.895720 0.586969 0.677691
v -0.895720 -0.586969 -0.677691
v -0.895720 0.586969 -0.677691
v 0.895720 -0.586969 0.677691
v 0.895720 0.586969 0.677691
v 0.895720 -0.586969 -0.677691
v 0.895720 0.586969 -0.677691
vn -1.0000 -0.0000 -0.0000
vn -0.0000 -0.0000 -1.0000
vn 1.0000 -0.0000 -0.0000
vn -0.0000 -0.0000 1.0000
vn -0.0000 -1.0000 -0.0000
vn -0.0000 1.0000 -0.0000
vt 0.959711 0.073371
vt 0.959711 0.146742
vt 0.875000 0.146742
vt 0.875000 0.073371
vt 0.867794 0.986965
vt 0.794423 0.986965
vt 0.794423 0.875000
vt 0.867794 0.875000
vt 0.959711 0.220113
vt 0.875000 0.220113
vt 0.986965 -0.000000
vt 0.986965 0.073371
vt 0.875000 0.000000
vt 0.709711 0.875000
vt 0.709711 0.986965
vt 0.625000 0.986965
vt 0.625000 0.875000
s 1
usemtl Material.001
f 1/1/1 2/2/1 4/3/1 3/4/1
f 3/5/2 4/6/2 8/7/2 7/8/2
f 7/2/3 8/9/3 6/10/3 5/3/3
f 5/11/4 6/12/4 2/4/4 1/13/4
f 3/14/5 7/15/5 5/16/5 1/17/5
f 8/7/6 4/6/6 2/15/6 6/14/6
o orejaDer
v 0.505781 0.589492 0.407687
v 0.505781 0.998603 0.407687
v 0.505781 0.589492 0.229307
v 0.505781 0.998603 0.229307
v 0.889552 0.589492 0.407687
v 0.889552 0.998603 0.407687
v 0.889552 0.589492 0.229307
v 0.889552 0.998603 0.229307
vn -1.0000 -0.0000 -0.0000
vn -0.0000 -0.0000 -1.0000
vn 1.0000 -0.0000 -0.0000
vn -0.0000 -0.0000 1.0000
vn -0.0000 -1.0000 -0.0000
vn -0.0000 1.0000 -0.0000
vt 0.375000 0.625000
vt 0.250000 0.625000
vt 0.250000 0.500000
vt 0.375000 0.500000
vt 0.500000 0.625000
vt 0.500000 0.500000
vt 0.625000 -0.000000
vt 0.625000 0.125000
vt 0.500000 0.125000
vt 0.500000 0.000000
vt 0.625000 0.250000
vt 0.500000 0.250000
vt 0.625000 0.375000
vt 0.500000 0.375000
vt 0.625000 0.500000
s 1
usemtl Material.001
f 9/18/7 10/19/7 12/20/7 11/21/7
f 11/22/8 12/18/8 16/21/8 15/23/8
f 15/24/9 16/25/9 14/26/9 13/27/9
f 13/25/10 14/28/10 10/29/10 9/26/10
f 11/29/11 15/28/11 13/30/11 9/31/11
f 16/31/12 12/30/12 10/32/12 14/23/12
o orejaIzq
v -0.893612 0.589492 0.407687
v -0.893612 0.998603 0.407687
v -0.893612 0.589492 0.229307
v -0.893612 0.998603 0.229307
v -0.509841 0.589492 0.407687
v -0.509841 0.998603 0.407687
v -0.509841 0.589492 0.229307
v -0.509841 0.998603 0.229307
vn -1.0000 -0.0000 -0.0000
vn -0.0000 -0.0000 -1.0000
vn 1.0000 -0.0000 -0.0000
vn -0.0000 -0.0000 1.0000
vn -0.0000 -1.0000 -0.0000
vn -0.0000 1.0000 -0.0000
vt 0.500000 0.000000
vt 0.500000 0.125000
vt 0.375000 0.125000
vt 0.375000 0.000000
vt 0.500000 0.250000
vt 0.375000 0.250000
vt 0.500000 0.375000
vt 0.375000 0.375000
vt 0.500000 0.500000
vt 0.375000 0.500000
vt 0.125000 0.500000
vt 0.125000 0.625000
vt 0.000000 0.625000
vt -0.000000 0.500000
vt 0.250000 0.500000
vt 0.250000 0.625000
s 1
usemtl Material.001
f 17/33/13 18/34/13 20/35/13 19/36/13
f 19/34/14 20/37/14 24/38/14 23/35/14
f 23/37/15 24/39/15 22/40/15 21/38/15
f 21/39/16 22/41/16 18/42/16 17/40/16
f 19/43/17 23/44/17 21/45/17 17/46/17
f 24/47/18 20/48/18 18/44/18 22/43/18
o trompa
v -0.394918 -0.381331 1.122292
v -0.394918 -0.119952 1.122292
v -0.394918 -0.381331 0.659164
v -0.394918 -0.119952 0.659164
v 0.394918 -0.381331 1.122292
v 0.394918 -0.119952 1.122292
v 0.394918 -0.381331 0.659164
v 0.394918 -0.119952 0.659164
vn -1.0000 -0.0000 -0.0000
vn -0.0000 -0.0000 -1.0000
vn 1.0000 -0.0000 -0.0000
vn -0.0000 -0.0000 1.0000
vn -0.0000 -1.0000 -0.0000
vn -0.0000 1.0000 -0.0000
vt 0.375000 -0.000000
vt 0.375000 0.125000
vt 0.250000 0.125000
vt 0.250000 0.000000
vt 0.375000 0.250000
vt 0.250000 0.250000
vt 0.375000 0.375000
vt 0.250000 0.375000
vt 0.125000 0.500000
vt 0.000000 0.500000
vt -0.000000 0.375000
vt 0.125000 0.375000
vt 0.250000 0.500000
vt 0.375000 0.500000
s 1
usemtl Material.001
f 25/49/19 26/50/19 28/51/19 27/52/19
f 27/50/20 28/53/20 32/54/20 31/51/20
f 31/53/21 32/55/21 30/56/21 29/54/21
f 29/57/22 30/58/22 26/59/22 25/60/22
f 27/56/23 31/61/23 29/57/23 25/60/23
f 32/55/24 28/62/24 26/61/24 30/56/24
