# Blender 5.0.1
# www.blender.org
mtllib cola.mtl
o cola
v 0.366500 0.266474 -2.973237
v 0.366500 -0.376101 -2.973237
v 0.366500 0.266474 -1.790633
v 0.366500 -0.376101 -1.790633
v -0.366500 0.266474 -2.973237
v -0.366500 -0.376101 -2.973237
v -0.366500 0.266474 -1.790633
v -0.366500 -0.376101 -1.790633
vn 1.0000 -0.0000 -0.0000
vn -0.0000 -0.0000 1.0000
vn -1.0000 -0.0000 -0.0000
vn -0.0000 -0.0000 -1.0000
vn -0.0000 1.0000 -0.0000
vn -0.0000 -1.0000 -0.0000
vt 0.125000 0.125000
vt 0.125000 -0.000000
vt -0.000000 0.000000
vt 0.000000 0.125000
vt 0.125000 0.250000
vt 0.000000 0.250000
vt 0.250000 -0.000000
vt 0.250000 0.125000
vt 0.250000 0.250000
vt 0.000000 0.375000
vt 0.125000 0.375000
vt 0.250000 0.375000
s 1
usemtl Material.001
f 1/1/1 3/2/1 4/3/1 2/4/1
f 3/5/2 7/1/2 8/4/2 4/6/2
f 7/7/3 5/2/3 6/1/3 8/8/3
f 5/8/4 1/1/4 2/5/4 6/9/4
f 3/5/5 1/6/5 5/10/5 7/11/5
f 8/9/6 6/5/6 2/11/6 4/12/6
