# Blender 5.0.1
# www.blender.org
mtllib pataDerDetras.mtl
o pataDerDetras
v -0.411323 -1.214299 -1.654446
v -0.411323 -0.492756 -1.654446
v -0.411323 -1.214299 -1.382372
v -0.411323 -0.492756 -1.382372
v -0.139130 -1.214299 -1.654446
v -0.139130 -0.492756 -1.654446
v -0.139130 -1.214299 -1.382372
v -0.139130 -0.492756 -1.382372
vn -1.0000 -0.0000 -0.0000
vn -0.0000 -0.0000 1.0000
vn 1.0000 -0.0000 -0.0000
vn -0.0000 -0.0000 -1.0000
vn -0.0000 -1.0000 -0.0000
vn -0.0000 1.0000 -0.0000
vt 0.875000 -0.000295
vt 0.750000 -0.000295
vt 0.750000 0.124705
vt 0.875000 0.124705
vt 0.872959 0.373039
vt 0.747959 0.373270
vt 0.748190 0.498270
vt 0.873190 0.498039
vt 0.872728 0.248039
vt 0.747728 0.248270
vt 0.872498 0.123040
vt 0.747498 0.123270
vt 0.747267 -0.001729
vt 0.872267 -0.001960
vt 0.747036 -0.126729
vt 0.872036 -0.126960
s 1
usemtl Material.001
f 1/1/1 3/2/1 4/3/1 2/4/1
f 3/5/2 7/6/2 8/7/2 4/8/2
f 7/9/3 5/10/3 6/6/3 8/5/3
f 5/11/4 1/12/4 2/10/4 6/9/4
f 3/13/5 1/12/5 5/11/5 7/14/5
f 8/15/6 6/13/6 2/14/6 4/16/6
